<svg width="36" height="36" viewBox="0 0 36 36" fill="none" xmlns="http://www.w3.org/2000/svg">
<path d="M18 0C18.5967 0 19.169 0.237053 19.591 0.65901C20.0129 1.08097 20.25 1.65326 20.25 2.25V15.75H33.75C34.3467 15.75 34.919 15.9871 35.341 16.409C35.7629 16.831 36 17.4033 36 18C36 18.5967 35.7629 19.169 35.341 19.591C34.919 20.0129 34.3467 20.25 33.75 20.25H20.25V33.75C20.25 34.3467 20.0129 34.919 19.591 35.341C19.169 35.7629 18.5967 36 18 36C17.4033 36 16.831 35.7629 16.409 35.341C15.9871 34.919 15.75 34.3467 15.75 33.75V20.25H2.25C1.65326 20.25 1.08097 20.0129 0.65901 19.591C0.237053 19.169 0 18.5967 0 18C0 17.4033 0.237053 16.831 0.65901 16.409C1.08097 15.9871 1.65326 15.75 2.25 15.75H15.75V2.25C15.75 1.65326 15.9871 1.08097 16.409 0.65901C16.831 0.237053 17.4033 0 18 0V0Z" fill="black"/>
</svg>
