<svg width="43" height="34" viewBox="0 0 43 34" fill="none" xmlns="http://www.w3.org/2000/svg">
<path d="M39.3742 0H12.5282C11.2932 0 10.3268 0.641898 9.68247 1.61391L0 16.5059L9.68247 31.3796C10.3268 32.3516 11.2932 33.0119 12.5282 33.0119H39.3742C41.3429 33.0119 42.9537 31.3613 42.9537 29.3439V3.66799C42.9537 1.65059 41.3429 0 39.3742 0ZM39.3742 29.3439H12.6534L4.29537 16.5059L12.6355 3.66799H39.3742V29.3439ZM18.6312 25.6759L25.0563 19.0919L31.4815 25.6759L34.005 23.09L27.5798 16.5059L34.005 9.9219L31.4815 7.33597L25.0563 13.92L18.6312 7.33597L16.1076 9.9219L22.5328 16.5059L16.1076 23.09L18.6312 25.6759Z" fill="#777676"/>
</svg>
