<svg width="80" height="103" viewBox="0 0 80 103" fill="none" xmlns="http://www.w3.org/2000/svg">
<path d="M0 30C0 13.4315 13.4315 0 30 0H50C66.5685 0 80 13.4315 80 30V50C80 66.5685 66.5685 80 50 80H43.5H37H30C13.4315 80 0 66.5685 0 50V30Z" fill="#5B4885"/>
<circle cx="40" cy="98" r="5" fill="#5B4885"/>
<g clip-path="url(#clip0_24_825)">
<path d="M57.5207 38.843L53.4298 34.7521C52.9619 34.284 52.2577 34.1442 51.6465 34.3973C51.035 34.6506 50.6363 35.2472 50.6363 35.9091V38.3636H41.6364V29.3636H44.091C44.7528 29.3636 45.3494 28.9649 45.6027 28.3535C45.8559 27.742 45.716 27.0381 45.248 26.5701L41.1571 22.4792C40.5181 21.8402 39.482 21.8402 38.8429 22.4792L34.752 26.5701C34.284 27.0381 34.1441 27.742 34.3973 28.3535C34.6506 28.9649 35.2473 29.3636 35.909 29.3636H38.3637V38.3636H29.3637V35.9091C29.3637 35.2472 28.965 34.6505 28.3535 34.3973C27.7419 34.1441 27.0381 34.2841 26.5702 34.7521L22.4793 38.843C21.8402 39.482 21.8402 40.5181 22.4793 41.1571L26.5702 45.248C26.8833 45.5611 27.3017 45.7274 27.7277 45.7274C27.9384 45.7274 28.151 45.6866 28.3535 45.6028C28.965 45.3495 29.3637 44.7528 29.3637 44.091V41.6364H38.3637V50.6364H35.9091C35.2473 50.6364 34.6506 51.0351 34.3974 51.6465C34.1442 52.258 34.2841 52.9619 34.7521 53.4299L38.843 57.5208C39.1625 57.8403 39.5813 58 40.0001 58C40.4189 58 40.8377 57.8403 41.1571 57.5207L45.248 53.4297C45.716 52.9617 45.8559 52.2579 45.6027 51.6464C45.3494 51.035 44.7528 50.6363 44.091 50.6363H41.6364V41.6364H50.6364V44.0909C50.6364 44.7528 51.035 45.3495 51.6466 45.6027C51.849 45.6866 52.0617 45.7273 52.2725 45.7273C52.6982 45.7273 53.1168 45.561 53.4298 45.2479L57.5207 41.157C58.1599 40.5181 58.1599 39.482 57.5207 38.843Z" fill="white"/>
</g>
<defs>
<clipPath id="clip0_24_825">
<rect width="36" height="36" fill="white" transform="translate(22 22)"/>
</clipPath>
</defs>
</svg>
