<svg width="36" height="36" viewBox="0 0 36 36" fill="none" xmlns="http://www.w3.org/2000/svg">
<g clip-path="url(#clip0_24_826)">
<path d="M35.5207 16.843L31.4298 12.7521C30.9619 12.284 30.2577 12.1442 29.6465 12.3973C29.035 12.6506 28.6363 13.2472 28.6363 13.9091V16.3636H19.6364V7.36364H22.091C22.7528 7.36364 23.3494 6.96491 23.6027 6.35346C23.8559 5.742 23.716 5.03815 23.248 4.57015L19.1571 0.479237C18.5181 -0.159817 17.482 -0.159817 16.8429 0.479237L12.752 4.57015C12.284 5.03815 12.1441 5.742 12.3973 6.35346C12.6506 6.96491 13.2473 7.36364 13.909 7.36364H16.3637V16.3636H7.36369V13.9091C7.36369 13.2472 6.96496 12.6505 6.35351 12.3973C5.74195 12.1441 5.03809 12.2841 4.5702 12.7521L0.479291 16.843C-0.159764 17.482 -0.159764 18.5181 0.479291 19.1571L4.5702 23.248C4.88329 23.5611 5.30165 23.7274 5.72765 23.7274C5.93842 23.7274 6.15104 23.6866 6.35351 23.6028C6.96496 23.3495 7.36369 22.7528 7.36369 22.091V19.6364H16.3637V28.6364H13.9091C13.2473 28.6364 12.6506 29.0351 12.3974 29.6465C12.1442 30.258 12.2841 30.9619 12.7521 31.4299L16.843 35.5208C17.1625 35.8403 17.5813 36 18.0001 36C18.4189 36 18.8377 35.8403 19.1571 35.5207L23.248 31.4297C23.716 30.9617 23.8559 30.2579 23.6027 29.6464C23.3494 29.035 22.7528 28.6363 22.091 28.6363H19.6364V19.6364H28.6364V22.0909C28.6364 22.7528 29.035 23.3495 29.6466 23.6027C29.849 23.6866 30.0617 23.7273 30.2725 23.7273C30.6982 23.7273 31.1168 23.561 31.4298 23.2479L35.5207 19.157C36.1599 18.5181 36.1599 17.482 35.5207 16.843Z" fill="white"/>
</g>
<defs>
<clipPath id="clip0_24_826">
<rect width="36" height="36" fill="white"/>
</clipPath>
</defs>
</svg>
