<svg width="17" height="17" viewBox="0 0 17 17" fill="none" xmlns="http://www.w3.org/2000/svg">
<g clip-path="url(#clip0_24_770)">
<path d="M10.9129 4.08915L8.29678 6.70471L5.8693 4.27751C5.41063 3.81855 4.6666 3.81869 4.20778 4.27751C3.7491 4.73619 3.7491 5.48007 4.20792 5.93889L6.6354 8.36637L4.08886 10.9126C3.63018 11.3716 3.63018 12.1155 4.08886 12.5741C4.54796 13.0327 5.29142 13.0328 5.75024 12.574L8.29664 10.0276L11.0317 12.7627C11.4909 13.2219 12.2344 13.2215 12.6932 12.7627C13.152 12.3038 13.1519 11.5601 12.6935 11.1014L9.95816 8.36609L12.5743 5.74997C13.0328 5.29143 13.033 4.54768 12.5744 4.08915C12.1157 3.62963 11.3714 3.63005 10.9129 4.08915Z" fill="white"/>
</g>
<defs>
<clipPath id="clip0_24_770">
<rect width="12" height="12" fill="white" transform="translate(0 8.48529) rotate(-45)"/>
</clipPath>
</defs>
</svg>
