<svg width="23" height="36" viewBox="0 0 23 36" fill="none" xmlns="http://www.w3.org/2000/svg">
<path d="M0.749798 9.16875C0.74457 9.29825 0.765847 9.42746 0.812326 9.54845C0.858805 9.66944 0.929506 9.77966 1.02009 9.87235C1.11068 9.96505 1.21925 10.0383 1.33914 10.0875C1.45903 10.1368 1.58771 10.161 1.7173 10.1587H5.0248C5.58055 10.1587 6.0193 9.70875 6.09355 9.1575C6.4513 6.525 8.25805 4.608 11.4778 4.608C14.2273 4.608 16.7473 5.98275 16.7473 9.2925C16.7473 11.8395 15.2443 13.0095 12.8773 14.7915C10.1773 16.7535 8.0398 19.044 8.1928 22.761L8.20405 23.6295C8.2108 24.1785 8.65855 24.6195 9.20755 24.6195H12.4588C13.0145 24.6195 13.4623 24.1695 13.4623 23.616V23.193C13.4623 20.3175 14.558 19.476 17.5123 17.2372C19.9558 15.3787 22.5005 13.3155 22.5005 8.9865C22.5005 2.92725 17.384 0 11.7815 0C6.70105 0 1.1323 2.36925 0.752048 9.16875H0.749798ZM6.9958 32.283C6.9958 34.4205 8.7013 36 11.0458 36C13.487 36 15.1678 34.4205 15.1678 32.283C15.1678 30.0667 13.487 28.5143 11.0435 28.5143C8.70355 28.5143 6.9958 30.0667 6.9958 32.283Z" fill="black"/>
</svg>
